<svg xmlns="http://www.w3.org/2000/svg" width="200" height="40" fill="none" class="UserLogo variant-- AccentedCardCarouselItemUserLogo" preserveAspectRatio="xMidYMid meet" viewBox="0 0 200 40"><path fill="var(--userLogoColor, #000)" fill-rule="evenodd" d="M126.008 13.36a1.654 1.654 0 012.948-1.12 1.652 1.652 0 01-1.298 2.672 1.606 1.606 0 01-1.51-.943 1.618 1.618 0 01-.14-.609zm.123 2.97h3.043v11h-3.043v-11zm-81.375-3.666H38.89V27.33h6.283c3.287 0 5.047-1.723 5.047-4.058a3.398 3.398 0 00-3.226-3.556v-.147a3.129 3.129 0 002.652-3.153c0-2.188-1.65-3.752-4.889-3.752zm1.748 4.253c0 1.16-.99 1.858-2.212 1.858l-2.347.036v-3.666h2.395c1.382 0 2.164.61 2.164 1.772zm.452 6.025c0 1.1-.709 1.821-2.444 1.821h-2.567v-3.886h2.567a2.14 2.14 0 012.444 2.065zm4.767 4.388h3.092l-.05-14.666h-3.042V27.33zm4.693-5.463c0-3.41 2.078-5.684 5.414-5.684 3.337 0 5.415 2.274 5.415 5.684s-2.078 5.67-5.415 5.67c-3.336 0-5.414-2.272-5.414-5.67zm7.724-.007c-.001-1.915-.796-3.33-2.297-3.33-1.504 0-2.335 1.418-2.335 3.337 0 1.919.794 3.324 2.334 3.324 1.539 0 2.297-1.414 2.298-3.33zm9.656-5.677c-3.337 0-5.403 2.31-5.403 5.684 0 3.349 2.03 5.67 5.403 5.67 2.896 0 4.742-1.71 4.888-4.24H75.8a1.955 1.955 0 01-1.992 1.833c-1.43 0-2.347-1.259-2.347-3.3s.93-3.263 2.347-3.263A1.955 1.955 0 0175.8 20.4h2.885c-.098-2.542-2.017-4.216-4.89-4.216zm6.49-3.52h3.055v7.835h.159l3.532-4.168h3.496l-4.083 4.767 4.29 6.233h-3.568l-3.007-4.437-.819.941v3.496h-3.055V12.664zm15.84 3.52c-3.337 0-5.403 2.31-5.403 5.684 0 3.349 2.03 5.67 5.427 5.67 2.909 0 4.742-1.71 4.889-4.24h-2.873a1.967 1.967 0 01-2.004 1.833c-1.43 0-2.347-1.259-2.347-3.3s.93-3.263 2.347-3.263a1.97 1.97 0 012.004 1.833h2.848c-.085-2.542-2.016-4.216-4.889-4.216zm9.545 11.147h-3.044V12.664h2.958v5.61h.135a3.249 3.249 0 013.287-2.09c2.286 0 3.801 1.564 3.801 4.143v7.003h-3.055v-6.465a1.864 1.864 0 00-.47-1.534 1.869 1.869 0 00-1.486-.605 2.053 2.053 0 00-2.126 2.248v6.356zm12.76-6.465c-2.176.207-4.131.953-4.131 3.397 0 2.176 1.552 3.276 3.654 3.276a3.372 3.372 0 003.214-1.736h.086v1.528h2.897v-7.431c0-2.628-2.225-3.728-4.669-3.728-2.64 0-4.364 1.26-4.791 3.264l2.823.232a1.835 1.835 0 011.955-1.222c1.039 0 1.626.525 1.626 1.43 0 .72-.746.806-2.664.99zm2.688 1.307v1.223a2.12 2.12 0 01-2.285 1.98c-.941 0-1.613-.428-1.613-1.284 0-.855.709-1.283 1.784-1.43a7.48 7.48 0 002.114-.489zm10.047 5.158h3.104l-.048-6.355a2.014 2.014 0 012.077-2.25 1.885 1.885 0 011.889 1.322c.082.264.105.543.067.817v6.466h3.055v-7.003c0-2.567-1.503-4.144-3.801-4.144a3.35 3.35 0 00-3.312 2.09h-.122V16.33h-2.909v11z" clip-rule="evenodd"></path><path fill="var(--userLogoColor, #3D89F5)" d="M13.675 17.306l-.893.893a2.541 2.541 0 000 3.666l7.188 7.26c.17.174.368.318.586.427v-8.799l-6.881-3.447z"></path><path fill="var(--userLogoColor, #1656B9)" d="M29.883 17.306l.893.893a2.543 2.543 0 010 3.666l-7.189 7.26a2.198 2.198 0 01-.586.427v-8.799l6.882-3.447z"></path><path fill="var(--userLogoColor, #85B5F8)" d="M28.157 15.485l-4.498-4.51a2.554 2.554 0 00-3.666 0l-4.51 4.51L21.8 18.64l6.356-3.154z"></path><path fill="var(--userLogoColor, #B1B8C8)" fill-rule="evenodd" d="M174.921 16.33h-2.909l-.012 11h3.055v-6.6a1.854 1.854 0 011.785-2.029 1.611 1.611 0 011.674 1.773v6.856h2.958v-6.722a1.712 1.712 0 01.451-1.358 1.72 1.72 0 011.321-.549 1.636 1.636 0 011.699 1.834v6.795h3.056v-7.333a3.556 3.556 0 00-5.017-3.345 3.559 3.559 0 00-1.706 1.622h-.171a2.905 2.905 0 00-2.994-2.09 3.079 3.079 0 00-3.056 2.09h-.134V16.33zm-21.389-.146c-3.336 0-5.39 2.31-5.39 5.683 0 3.349 2.017 5.671 5.451 5.671 2.909 0 4.755-1.711 4.889-4.241h-2.872a1.967 1.967 0 01-2.004 1.833c-1.418 0-2.347-1.259-2.347-3.3 0-2.04.929-3.263 2.347-3.263a1.972 1.972 0 012.004 1.833h2.811c-.085-2.542-2.016-4.216-4.889-4.216zm-9.639 8.404a1.713 1.713 0 001.206 2.926 1.712 1.712 0 10-1.206-2.926zm15.702-2.721c0-3.41 2.077-5.683 5.414-5.683 3.337 0 5.402 2.273 5.402 5.683 0 3.41-2.065 5.671-5.402 5.671s-5.414-2.273-5.414-5.671zm7.724-.006c-.002-1.916-.796-3.33-2.298-3.33-1.503 0-2.334 1.417-2.334 3.336 0 1.919.794 3.324 2.334 3.324 1.538 0 2.296-1.414 2.298-3.33z" clip-rule="evenodd"></path><title>BlockchainCom logo</title></svg>