<svg xmlns="http://www.w3.org/2000/svg" width="200" height="40" fill="none" class="UserLogo variant-- AccentedCardCarouselItemUserLogo" preserveAspectRatio="xMidYMid meet" viewBox="0 0 200 40"><path fill="var(--userLogoColor, #2C2C2C)" d="M26.463 21.419a4.16 4.16 0 01.383 1.757c0 1.247-.465 2.314-1.397 3.2-.916.871-2.568 1.33-4.1 1.33h-2.972c-.76 0-1.377-.618-1.377-1.378V13.851c0-.76.616-1.377 1.377-1.377h1.845c1.202 0 2.786.086 3.447.371a3.482 3.482 0 011.623 1.397 3.79 3.79 0 01.585 2.074c0 .69-.161 1.343-.518 1.937-.191.32-.755.789-1.318 1.07.466.21 1.04.45 1.386.721.225.195.42.413.586.654.18.225.33.465.45.72zm-7.345 4.19h1.465c1.036 0 2.144-.142 2.58-.337.465-.196.81-.481 1.036-.857.27-.375.405-.788.405-1.24 0-.585-.187-1.073-.563-1.463-.345-.406-.864-.706-1.555-.901-.24-.06-.942-.053-1.363-.068-.42-.03-.931-.045-1.532-.045h-.473v4.912zm3.245-7.322a1.99 1.99 0 001.33-1.915c-.001-.556-.189-.992-.564-1.307-.39-.33-1.06-.496-2.006-.496h-2.005v3.988h1.15c.96 0 1.659-.09 2.095-.27zm9.994 7.345h5.294a1.037 1.037 0 010 2.073h-6.035c-.76 0-1.377-.617-1.377-1.377V13.533a1.059 1.059 0 112.118 0v12.1zm22.217-11.334c1.547 1.548 2.32 3.44 2.32 5.679 0 2.237-.773 4.13-2.32 5.677-1.548 1.547-3.433 2.32-5.656 2.32-2.238 0-4.146-.773-5.723-2.32-1.547-1.547-2.32-3.417-2.32-5.61 0-1.457.352-2.809 1.058-4.056a7.67 7.67 0 012.907-2.929A7.645 7.645 0 0148.783 12c2.298 0 4.228.766 5.79 2.298zm.135 5.679c0-1.097-.248-2.089-.744-2.975-.51-.871-1.232-1.577-2.163-2.118a5.913 5.913 0 00-2.952-.789c-1.006 0-1.967.263-2.884.79a6.086 6.086 0 00-2.14 2.14c-.51.886-.766 1.892-.766 3.019 0 .841.142 1.6.428 2.276.27.676.69 1.299 1.262 1.87.57.57 1.201.991 1.892 1.261.661.286 1.397.428 2.208.428a6.092 6.092 0 002.975-.766 5.47 5.47 0 002.117-2.14c.511-.871.767-1.87.767-2.996zM73.2 14.298c1.548 1.548 2.322 3.44 2.322 5.679 0 2.237-.774 4.13-2.321 5.677-1.547 1.547-3.433 2.32-5.656 2.32-2.238 0-4.145-.773-5.723-2.32-1.547-1.547-2.32-3.417-2.32-5.61 0-1.457.352-2.809 1.058-4.056a7.667 7.667 0 012.907-2.929A7.645 7.645 0 0167.41 12c2.298 0 4.228.766 5.79 2.298zm.136 5.679c0-1.097-.248-2.089-.744-2.975-.51-.871-1.231-1.577-2.163-2.118a5.914 5.914 0 00-2.951-.789c-1.007 0-1.968.263-2.885.79a6.09 6.09 0 00-2.14 2.14c-.51.886-.766 1.892-.766 3.019 0 .841.143 1.6.428 2.276.27.676.691 1.299 1.262 1.87a5.501 5.501 0 001.892 1.261c.662.286 1.397.428 2.209.428a6.092 6.092 0 002.974-.766 5.47 5.47 0 002.118-2.14c.51-.871.766-1.87.766-2.996zm19.659-7.526c.248 0 .46.183.494.428l2.012 14.017a.689.689 0 01-.682.786h-.364a1.1 1.1 0 01-1.09-.95l-1.199-8.67-4.58 9.267a.635.635 0 01-1.138.001l-4.646-9.336-1.178 8.734a1.102 1.102 0 01-1.092.954h-.338a.689.689 0 01-.682-.786l2.011-14.016a.5.5 0 01.943-.15l5.563 11.235 5.518-11.235a.499.499 0 01.448-.279zm16.431 1.082a1.059 1.059 0 112.117 0v13.6a.572.572 0 01-1.003.375l-8.933-10.258v9.362a1.093 1.093 0 11-2.186 0V13.031a.557.557 0 01.979-.366l9.026 10.399v-9.531zm12.779-1.104c.241 0 .46.14.562.358l6.494 13.893a.688.688 0 01-.623.98h-.545c-.424 0-.811-.243-.994-.626l-1.998-4.173h-5.836l-1.977 4.17c-.182.384-.57.63-.995.63h-.583a.689.689 0 01-.623-.983l6.556-13.893a.621.621 0 01.562-.356zm1.95 8.359l-1.961-4.146-1.96 4.146h3.921zm5.877-7.358c0-.578.47-1.047 1.049-1.047h8.832a1.048 1.048 0 110 2.095h-3.323v12.077a1.082 1.082 0 01-2.164 0V14.478h-3.345a1.048 1.048 0 01-1.049-1.047zm15.443.114a1.07 1.07 0 112.14 0v13.09a1.07 1.07 0 11-2.14 0v-13.09zm19.731.754c1.547 1.548 2.32 3.44 2.32 5.679 0 2.237-.773 4.13-2.32 5.677-1.547 1.547-3.432 2.32-5.656 2.32-2.238 0-4.146-.773-5.723-2.32-1.547-1.547-2.32-3.417-2.32-5.61 0-1.457.353-2.809 1.059-4.056a7.666 7.666 0 012.906-2.929A7.645 7.645 0 01159.415 12c2.299 0 4.229.766 5.791 2.298zm.135 5.679c0-1.097-.248-2.089-.743-2.975-.511-.871-1.232-1.577-2.164-2.118a5.91 5.91 0 00-2.951-.789c-1.007 0-1.968.263-2.884.79a6.092 6.092 0 00-2.141 2.14c-.51.886-.766 1.892-.766 3.019 0 .841.143 1.6.428 2.276.271.676.692 1.299 1.262 1.87a5.499 5.499 0 001.893 1.261c.661.286 1.397.428 2.208.428a6.089 6.089 0 002.974-.766 5.474 5.474 0 002.118-2.14c.511-.871.766-1.87.766-2.996zm15.293-6.444a1.059 1.059 0 112.118 0v13.615a.558.558 0 01-.978.366l-8.959-10.264v9.362a1.093 1.093 0 11-2.185 0V13.031a.557.557 0 01.977-.366l9.027 10.399v-9.531z"></path><title>BloomNation logo</title></svg>