<svg xmlns="http://www.w3.org/2000/svg" width="200" height="40" fill="none" class="UserLogo variant-- AccentedCardCarouselItemUserLogo" preserveAspectRatio="xMidYMid meet" viewBox="0 0 200 40"><path fill="var(--userLogoColor, #181A1D)" fill-rule="evenodd" d="M86.23 17.046L90.585 10h6.238l-6.166 9.332 6.583 9.942h-6.703l-4.307-6.94v6.94h-5.42V10h5.42v7.046zm22.89 12.228h-5.172v-1.378c-.413.603-.907 1.052-1.483 1.335a4.279 4.279 0 01-1.907.428 4.61 4.61 0 01-2.252-.567 5.647 5.647 0 01-1.796-1.554c-.504-.663-.897-1.437-1.186-2.33a9.301 9.301 0 01-.432-2.879c0-1.047.144-2.014.433-2.906a7.616 7.616 0 011.185-2.313 5.696 5.696 0 011.796-1.544 4.672 4.672 0 012.252-.566c.692 0 1.33.144 1.907.428.576.283 1.07.731 1.483 1.335v-1.368h5.172v13.879zm-9.032-6.94c0 .626.197 1.139.595 1.545.394.406.86.603 1.388.603.528 0 .989-.203 1.387-.603.394-.406.596-.92.596-1.544 0-.625-.197-1.138-.596-1.544-.393-.406-.859-.604-1.387-.604s-.989.203-1.388.604c-.398.406-.595.919-.595 1.544zm18.827-7.13v5.924a8.871 8.871 0 01.365-1.705c.288-.892.686-1.661 1.186-2.313a5.698 5.698 0 011.796-1.544 4.671 4.671 0 012.252-.566c.691 0 1.33.144 1.906.428.576.283 1.071.731 1.484 1.335v-1.368h5.176v13.879h-5.176v-1.378c-.413.603-.908 1.052-1.484 1.335a4.275 4.275 0 01-1.906.428 4.611 4.611 0 01-2.252-.567 5.64 5.64 0 01-1.796-1.554c-.504-.663-.898-1.437-1.186-2.33a9.304 9.304 0 01-.432-2.879c0-.36.017-.712.051-1.053a1.86 1.86 0 00-.623-.234 3.476 3.476 0 00-.595-.053c-.893 0-1.575.31-2.055.924-.48.614-.716 1.538-.716 2.767v4.6h-5.195V15.394h5.171v2.121c.365-.806.807-1.415 1.335-1.816.528-.406 1.186-.604 1.978-.604.13 0 .265.011.394.027.13.016.24.048.322.08zm5.128 7.13c0 .626.197 1.139.595 1.545.394.406.86.603 1.388.603.528 0 .989-.203 1.388-.603.393-.406.595-.92.595-1.544 0-.625-.197-1.138-.595-1.544-.394-.406-.86-.604-1.388-.604-.528 0-.989.203-1.388.604-.393.406-.595.919-.595 1.544zm16.571 1.79c-.255-.256-.385-.689-.385-1.293v-2.81H143v-4.626h-2.771v-3.91h-5.195v3.91h-1.608v4.627h1.608v4.156c0 1.747.423 3.093 1.273 4.049.85.956 2.002 1.432 3.452 1.432.792 0 1.45-.075 1.969-.22.518-.149.94-.315 1.272-.496V24.07a2.571 2.571 0 01-.605.315c-.226.08-.451.123-.682.123-.475 0-.845-.128-1.099-.385zM57 10h18.095v6.359H57V10zm0 11.623l5.823-4.417h6.44l5.832 4.466v7.616l-9.05-7.512L57 29.288v-7.665z" clip-rule="evenodd"></path><title>Karat logo</title></svg>