<svg xmlns="http://www.w3.org/2000/svg" width="200" height="40" fill="none" class="UserLogo variant-- AccentedCardCarouselItemUserLogo" viewBox="0 0 200 40" preserveAspectRatio="xMidYMid meet"><path fill="var(--userLogoColor, #222326)" fill-rule="evenodd" d="M43.878 9.911a.44.44 0 00.018.608l20.579 20.579a.44.44 0 00.608.018 14.972 14.972 0 004.911-11.105C69.994 11.72 63.274 5 54.984 5c-4.402 0-8.36 1.894-11.106 4.911zm-2.572 3.906a.442.442 0 00.092.494l19.285 19.285c.13.13.327.168.494.092.446-.202.88-.425 1.3-.668a.437.437 0 00.085-.69L42.664 12.432a.437.437 0 00-.69.085c-.243.42-.466.854-.668 1.3zm-1.17 5.522a.443.443 0 01-.13-.342c.04-.597.115-1.184.222-1.76a.431.431 0 01.735-.216l17.01 17.01a.431.431 0 01-.216.735 15.01 15.01 0 01-1.76.222.443.443 0 01-.342-.13l-15.52-15.52zm1.044 4.189c-.31-.31-.81-.043-.697.38a15.039 15.039 0 0010.603 10.603c.423.113.69-.387.38-.697L41.18 23.528zm59.3-10.267a1.952 1.952 0 001.949-1.956c0-1.08-.872-1.955-1.949-1.955a1.952 1.952 0 00-1.948 1.955c0 1.08.873 1.956 1.948 1.956zm-16.686 17.05V9.352h3.462v17.894h9.335v3.066H83.794zm24.641-8.553v8.553h-3.35V15.457h3.308v2.546l.042-.028c.336-.797.878-1.463 1.626-1.998.747-.544 1.7-.816 2.859-.816 1.028 0 1.962.23 2.803.69.841.45 1.514 1.11 2.019 1.983.504.872.756 1.942.756 3.208v9.27h-3.349v-8.806c0-1.126-.299-1.979-.897-2.56-.589-.591-1.379-.887-2.369-.887-.636 0-1.215.131-1.738.394a2.926 2.926 0 00-1.247 1.21c-.309.544-.463 1.243-.463 2.096zm30.331 8.3c.767.328 1.645.492 2.635.492.813 0 1.509-.103 2.089-.309.579-.216 1.056-.502 1.429-.858.384-.357.687-.746.912-1.168h.056v2.096h3.209V20.085c0-.722-.14-1.383-.42-1.984-.28-.6-.687-1.12-1.22-1.561-.523-.44-1.158-.778-1.906-1.013-.747-.244-1.588-.366-2.523-.366-1.28 0-2.387.22-3.322.661-.925.432-1.649 1.013-2.172 1.745a4.57 4.57 0 00-.855 2.476h3.238c.037-.432.187-.816.448-1.154.262-.337.617-.6 1.066-.788.448-.197.966-.295 1.555-.295s1.089.098 1.5.295c.42.197.743.465.967.802.224.338.337.732.337 1.182v.113c0 .337-.117.586-.351.745-.224.16-.607.277-1.149.352-.533.075-1.262.164-2.187.267-.757.084-1.485.211-2.186.38a6.736 6.736 0 00-1.879.746 3.682 3.682 0 00-1.289 1.308c-.318.544-.476 1.242-.476 2.096 0 .985.224 1.81.672 2.476a4.212 4.212 0 001.822 1.491zm5.425-2.49c-.542.29-1.21.436-2.005.436-.803 0-1.443-.169-1.92-.506-.477-.347-.715-.82-.715-1.421 0-.469.131-.849.393-1.14.271-.29.626-.52 1.065-.689a6.147 6.147 0 011.429-.352c.374-.056.739-.112 1.094-.168l.995-.183c.308-.066.57-.132.785-.197.224-.066.388-.136.49-.211v1.66a3.25 3.25 0 01-.406 1.604c-.262.478-.663.867-1.205 1.167zm7.828 2.743V15.457h3.223v2.447h.043c.271-.844.696-1.486 1.275-1.927.589-.45 1.36-.675 2.313-.675.233 0 .444.01.63.028.197.01.36.019.491.028v3.025a12.098 12.098 0 00-1.626-.113 3.08 3.08 0 00-1.514.38c-.457.253-.822.643-1.093 1.168-.261.515-.392 1.167-.392 1.955v8.54h-3.35zm-53.22 0V15.457h3.349v14.855h-3.35zm25.271-.66c1.075.665 2.35.998 3.827.998 1.14 0 2.177-.206 3.111-.619.944-.422 1.729-.999 2.355-1.73a5.528 5.528 0 001.219-2.56h-3.153c-.141.44-.37.83-.687 1.167a3.205 3.205 0 01-1.163.774c-.468.187-1.01.281-1.626.281-.832 0-1.547-.188-2.145-.563a3.597 3.597 0 01-1.345-1.561c-.28-.613-.433-1.307-.459-2.082h10.775v-.9c0-1.145-.169-2.186-.505-3.124-.336-.947-.813-1.763-1.43-2.448a6.255 6.255 0 00-2.228-1.603c-.86-.375-1.818-.563-2.874-.563-1.373 0-2.588.333-3.644.999-1.056.666-1.883 1.585-2.481 2.757-.598 1.172-.897 2.514-.897 4.024 0 1.5.29 2.837.869 4.009a6.647 6.647 0 002.481 2.743zm7.05-9.834a3.428 3.428 0 00-1.317-1.477c-.57-.347-1.243-.52-2.019-.52-.766 0-1.434.173-2.004.52-.56.347-1 .839-1.317 1.477-.227.462-.37.987-.43 1.575h7.517a4.603 4.603 0 00-.43-1.575z" clip-rule="evenodd"></path><title>Linear logo</title></svg>