<svg xmlns="http://www.w3.org/2000/svg" width="200" height="40" fill="none" class="UserLogo variant-- AccentedCardCarouselItemUserLogo" preserveAspectRatio="xMidYMid meet" viewBox="0 0 200 40"><path fill="var(--userLogoColor, #000)" fill-rule="evenodd" d="M139.792 14.12a2.127 2.127 0 002.141-2.12 2.139 2.139 0 00-2.141-2.134c-1.184 0-2.14.947-2.14 2.12s.956 2.133 2.14 2.133zm-51.53-2.387h4.429l4.67 11.053h.203l4.684-11.053h4.429v16.453h-3.486V17.48h-.135l-4.402 10.626h-2.37L91.897 17.44h-.134V28.2h-3.487V11.733h-.013zm25.146 16.68c-1.212 0-2.221-.307-3.029-.92-.808-.613-1.198-1.533-1.198-2.76 0-.92.229-1.64.673-2.173.444-.52 1.037-.907 1.763-1.147.727-.24 1.522-.413 2.356-.48 1.104-.107 1.898-.213 2.369-.333.472-.12.714-.374.714-.774v-.053c0-.507-.162-.907-.498-1.187-.323-.28-.794-.413-1.387-.413-.632 0-1.144.133-1.521.4a1.874 1.874 0 00-.74 1.026l-3.271-.253c.242-1.12.848-2.013 1.803-2.68.97-.653 2.208-.987 3.743-.987.942 0 1.831.147 2.652.44.821.294 1.48.747 1.992 1.36.512.614.767 1.4.767 2.387v8.32h-3.365V26.48h-.094c-.31.574-.768 1.04-1.387 1.4-.633.36-1.413.534-2.342.534zm1.009-2.36c.768 0 1.414-.213 1.912-.653.498-.44.74-.987.74-1.627v-1.307c-.134.093-.35.173-.646.24a12.52 12.52 0 01-.929.187c-.323.053-.619.093-.875.133-.619.08-1.117.253-1.507.507-.377.253-.566.613-.566 1.106 0 .467.175.827.525 1.067.35.227.795.347 1.346.347zm10.595 5.96c.982.653 2.329.987 4.038.987 1.212 0 2.289-.174 3.231-.534.929-.36 1.669-.88 2.194-1.573.539-.693.808-1.56.808-2.573V15.853h-3.514v2.08h-.134a4.408 4.408 0 00-.687-1.027c-.296-.347-.686-.627-1.171-.853-.485-.24-1.077-.36-1.79-.36-.929 0-1.791.24-2.571.706-.781.467-1.414 1.16-1.885 2.094-.471.933-.7 2.107-.7 3.507 0 1.36.229 2.493.686 3.386.472.893 1.091 1.547 1.872 1.987.78.44 1.655.653 2.611.653 1.023 0 1.817-.2 2.41-.613.592-.413.996-.88 1.225-1.387h.148v2.253c0 .814-.256 1.387-.754 1.747-.498.36-1.131.533-1.898.533-.781 0-1.373-.133-1.804-.413-.417-.267-.7-.573-.835-.907l-3.271.427c.216.893.821 1.693 1.791 2.347zm6.084-7.493c-.471.613-1.117.92-1.979.92-.861 0-1.534-.307-1.992-.934-.458-.626-.686-1.466-.686-2.533 0-1.053.228-1.907.686-2.573.458-.667 1.131-1 1.992-1 .862 0 1.522.32 1.979.973.458.653.7 1.52.7 2.6.014 1.093-.229 1.933-.7 2.547zm7 3.666V15.84h3.527v12.347h-3.527zm8.75-.56c.943.533 2.06.8 3.366.8 1.13 0 2.113-.2 2.948-.6.834-.4 1.481-.96 1.952-1.68.471-.72.74-1.547.794-2.493h-3.339c-.107.653-.363 1.173-.78 1.533-.418.36-.929.533-1.535.533-.821 0-1.481-.32-1.979-.96-.498-.653-.74-1.56-.74-2.746 0-1.174.242-2.067.74-2.707.498-.64 1.158-.96 1.979-.96.646 0 1.171.187 1.562.573.403.374.646.867.74 1.494h3.338c-.053-.96-.323-1.787-.807-2.494-.485-.706-1.144-1.253-1.979-1.653-.835-.387-1.804-.587-2.921-.587-1.293 0-2.396.267-3.339.814a5.54 5.54 0 00-2.167 2.24c-.498.96-.754 2.066-.754 3.333 0 1.253.242 2.347.741 3.307a5.691 5.691 0 002.18 2.253z" clip-rule="evenodd"></path><path fill="var(--userLogoColor, #6851FF)" fill-rule="evenodd" d="M60.746 0a47.783 47.783 0 005.762 5.88c-1.387 4.467-2.14 9.2-2.14 14.12s.753 9.653 2.14 14.12A48.74 48.74 0 0060.746 40a47.779 47.779 0 00-5.761-5.88c1.386-4.467 2.14-9.2 2.14-14.12s-.754-9.653-2.14-14.12A47.776 47.776 0 0060.746 0zM51 31.027a49.066 49.066 0 00-7-4.04A23.546 23.546 0 0045.05 20c0-2.427-.363-4.773-1.05-6.987a49.069 49.069 0 007-4.04A47.37 47.37 0 0152.292 20c0 3.8-.444 7.493-1.292 11.027zM69.2 20c0 3.8.444 7.493 1.292 11.027a49.066 49.066 0 017-4.04A23.546 23.546 0 0176.442 20c0-2.427.364-4.773 1.05-6.987a49.069 49.069 0 01-7-4.04A47.2 47.2 0 0069.2 20z" clip-rule="evenodd"></path><title>Magic logo</title></svg>