<svg xmlns="http://www.w3.org/2000/svg" width="200" height="40" fill="none" class="UserLogo variant-- AccentedCardCarouselItemUserLogo" preserveAspectRatio="xMidYMid meet" viewBox="0 0 200 40"><path fill="var(--userLogoColor, #D8C295)" d="M150.4 25.704h-6.352l-1.18 2.99h-4.335l6.631-15.385h4.184L156 28.693h-4.42l-1.18-2.989zm-1.244-3.209l-1.932-4.923-1.931 4.923h3.863zm-11.817-9.186v15.384h-3.498l-6.63-8.198v8.198h-4.163V13.31h3.498l6.63 8.197V13.31h4.163zM81.69 24.605h-2.318v4.088h-4.249V13.31h6.867c1.359 0 2.539.234 3.54.703 1.001.454 1.774 1.113 2.318 1.978.543.85.815 1.853.815 3.01 0 1.114-.257 2.089-.772 2.924-.501.82-1.224 1.465-2.168 1.934l3.24 4.835h-4.549l-2.725-4.088zm2.681-5.604c0-.718-.221-1.275-.665-1.67-.443-.396-1.101-.594-1.974-.594h-2.36v4.506h2.36c.873 0 1.53-.19 1.974-.572.444-.395.665-.952.665-1.67zM72.766 25.33v3.363h-12.06V13.31h11.78v3.362h-7.574v2.594h6.673v3.252h-6.673v2.814h7.853zm-23.603-4.041h3.854a2.19 2.19 0 001.605-.652c.442-.44.664-1.06.664-1.86 0-.599-.231-1.134-.692-1.606-.461-.478-.986-.718-1.577-.718H47.32v12.24h-.664v-12.92h6.362c.775 0 1.457.306 2.047.916.59.611.885 1.307.885 2.088 0 .963-.285 1.737-.857 2.323a2.807 2.807 0 01-2.075.868h-3.854v-.68zm0 1.36h3.854c.64 0 1.23-.158 1.77-.473a3.56 3.56 0 001.32-1.378c.337-.599.506-1.272.506-2.021 0-.97-.362-1.826-1.088-2.57-.719-.742-1.555-1.114-2.508-1.114h-7.025v13.6h-.664v-14.28h7.69c.743 0 1.444.202 2.102.605.657.403 1.18.941 1.567 1.615.394.674.59 1.388.59 2.144 0 .856-.197 1.636-.59 2.342a4.346 4.346 0 01-1.567 1.633 4.038 4.038 0 01-2.103.576h-3.854v-.68zm0 1.36h3.854c.658 0 1.288-.133 1.89-.397a5.072 5.072 0 001.568-1.086 5.109 5.109 0 001.07-1.662c.264-.655.396-1.35.396-2.087a4.87 4.87 0 00-.673-2.484 5.106 5.106 0 00-1.816-1.86 4.558 4.558 0 00-2.435-.7h-8.353v14.96H44v-15.64h9.017a5.19 5.19 0 012.766.794 5.853 5.853 0 012.057 2.106c.51.881.765 1.823.765 2.824 0 .894-.15 1.718-.452 2.474-.301.75-.707 1.372-1.217 1.87a5.518 5.518 0 01-1.78 1.161 5.714 5.714 0 01-2.139.406h-3.854v-.68zm-.516 4.683h-.664V17.133h5.034a1.5 1.5 0 011.125.492c.32.327.48.71.48 1.152 0 1.221-.535 1.832-1.605 1.832h-3.854v-.68h3.854c.295 0 .526-.085.692-.255.166-.17.249-.47.249-.897a.93.93 0 00-.277-.69.89.89 0 00-.664-.274h-4.37v10.88zm63.828.308c-1.588 0-3.018-.344-4.291-1.033a7.748 7.748 0 01-2.983-2.857c-.715-1.216-1.073-2.586-1.073-4.11 0-1.524.358-2.894 1.073-4.11a7.748 7.748 0 012.983-2.857c1.273-.689 2.703-1.033 4.291-1.033 1.588 0 3.011.344 4.27 1.033 1.273.689 2.268 1.641 2.983 2.857.729 1.216 1.094 2.586 1.094 4.11 0 1.524-.365 2.894-1.094 4.11-.715 1.216-1.71 2.168-2.983 2.857-1.259.689-2.682 1.033-4.27 1.033zm0-3.604a3.95 3.95 0 002.06-.55 3.927 3.927 0 001.459-1.538c.358-.674.537-1.444.537-2.308 0-.864-.179-1.626-.537-2.286a3.89 3.89 0 00-1.459-1.56 3.95 3.95 0 00-2.06-.55 3.95 3.95 0 00-2.06.55 3.897 3.897 0 00-1.459 1.56c-.358.66-.536 1.422-.536 2.286 0 .864.178 1.634.536 2.308a3.932 3.932 0 001.459 1.538 3.95 3.95 0 002.06.55zM96.286 29c-1.216 0-2.397-.154-3.54-.462-1.145-.307-2.075-.718-2.79-1.23l1.394-3.21c.673.455 1.452.821 2.34 1.1a8.71 8.71 0 002.617.417c1.63 0 2.446-.417 2.446-1.252 0-.44-.236-.762-.708-.967-.458-.22-1.201-.447-2.231-.682-1.13-.249-2.075-.513-2.833-.791a4.861 4.861 0 01-1.953-1.384c-.543-.63-.815-1.48-.815-2.55 0-.938.25-1.78.751-2.528.5-.761 1.245-1.362 2.232-1.802 1.001-.44 2.224-.659 3.669-.659.987 0 1.96.117 2.918.352.959.22 1.803.55 2.532.989l-1.309 3.23c-1.43-.79-2.818-1.186-4.162-1.186-.844 0-1.46.131-1.846.395-.386.25-.58.579-.58.99 0 .41.23.717.688.922.457.205 1.194.418 2.21.638 1.144.249 2.088.52 2.832.813a4.677 4.677 0 011.953 1.363c.558.615.837 1.457.837 2.527 0 .923-.251 1.758-.751 2.505-.501.748-1.252 1.349-2.254 1.803-1 .44-2.217.659-3.647.659z"></path><title>Persona logo</title></svg>