<svg class="ProductIcon ProductIcon--Authorization " width="40" height="40" viewBox="0 0 40 40" fill="none" xmlns="http://www.w3.org/2000/svg">
    
      <title>Authorization</title>
    
    <path fill="#96F" d="M9.1381 4.1033c-.07474-1.1211.81447-2.07156 1.9381-2.07156H35.5c1.3807 0 2.5 1.11929 2.5 2.5V28.9556c0 1.1236-.9505 2.0128-2.0716 1.938C21.5483 29.935 10.0968 18.4834 9.1381 4.1033Z"></path><path fill="url(#product-icon-authorization-SiteMenu-a)" d="M2.1381 11.1033c-.07474-1.1211.81447-2.07156 1.93806-2.07156H28.5c1.3807 0 2.5 1.11926 2.5 2.49996v24.4239c0 1.1236-.9505 2.0128-2.0716 1.938C14.5483 36.935 3.09678 25.4834 2.1381 11.1033Z"></path><path fill="url(#product-icon-authorization-SiteMenu-b)" fill-rule="evenodd" d="M30.9998 30.1351c-10.4-2.5385-18.5648-10.7033-21.10332-21.10336H28.4998c1.3807 0 2.5 1.11926 2.5 2.49996v18.6034Z" clip-rule="evenodd"></path><defs><linearGradient id="product-icon-authorization-SiteMenu-a" x1="16.2942" x2="16.2075" y1="16.7651" y2="36.4202" gradientUnits="userSpaceOnUse"><stop stop-color="#11EFE3"></stop><stop offset=".33" stop-color="#15E8E2"></stop><stop offset=".74" stop-color="#1FD3E0"></stop><stop offset="1" stop-color="#21CFE0"></stop></linearGradient><linearGradient id="product-icon-authorization-SiteMenu-b" x1="22.0036" x2="26.4551" y1="27.9902" y2="5.55009" gradientUnits="userSpaceOnUse"><stop stop-color="#0048E5"></stop><stop offset=".63979" stop-color="#625AF5"></stop><stop offset="1" stop-color="#8A62FC"></stop></linearGradient></defs>
  </svg>