<svg xmlns="http://www.w3.org/2000/svg" width="200" height="40" fill="none" class="UserLogo variant-- AccentedCardCarouselItemUserLogo" preserveAspectRatio="xMidYMid meet" viewBox="0 0 200 40"><path fill="var(--userLogoColor, #1ED760)" d="M57.995 2C48.057 2 40 10.057 40 19.995c0 9.94 8.057 17.995 17.995 17.995 9.94 0 17.996-8.056 17.996-17.995C75.991 10.057 67.935 2 57.996 2zm8.253 25.954a1.121 1.121 0 01-1.543.372c-4.225-2.58-9.544-3.165-15.808-1.734a1.122 1.122 0 01-.5-2.188c6.856-1.566 12.736-.891 17.48 2.007.528.325.696 1.015.371 1.543zm2.203-4.9c-.406.66-1.27.869-1.93.463-4.837-2.973-12.21-3.834-17.932-2.098a1.405 1.405 0 01-1.751-.934 1.405 1.405 0 01.936-1.75c6.535-1.983 14.66-1.023 20.215 2.39.66.407.868 1.27.462 1.93zm.189-5.102c-5.8-3.445-15.37-3.762-20.907-2.08a1.683 1.683 0 11-.977-3.222c6.357-1.93 16.924-1.557 23.602 2.407a1.683 1.683 0 11-1.718 2.895zm20.32.66c-3.108-.74-3.66-1.26-3.66-2.353 0-1.033.972-1.728 2.418-1.728 1.4 0 2.789.528 4.246 1.614a.2.2 0 00.153.038.2.2 0 00.135-.084l1.517-2.138a.204.204 0 00-.039-.277c-1.734-1.39-3.685-2.067-5.967-2.067-3.355 0-5.7 2.013-5.7 4.894 0 3.089 2.023 4.183 5.517 5.027 2.972.685 3.475 1.259 3.475 2.284 0 1.137-1.014 1.844-2.648 1.844-1.813 0-3.294-.613-4.948-2.044a.21.21 0 00-.149-.05.201.201 0 00-.14.072l-1.701 2.024a.205.205 0 00.019.284c1.925 1.719 4.293 2.625 6.85 2.625 3.615 0 5.951-1.974 5.951-5.032.006-2.58-1.539-4.01-5.323-4.93l-.006-.003zm13.508-3.064c-1.567 0-2.852.617-3.913 1.882v-1.424a.203.203 0 00-.202-.204H95.57a.203.203 0 00-.202.204v15.816c0 .112.09.204.202.204h2.783a.204.204 0 00.202-.204v-4.991c1.061 1.188 2.346 1.77 3.913 1.77 2.911 0 5.86-2.241 5.86-6.526.004-4.285-2.944-6.527-5.858-6.527h-.002zm2.623 6.527c0 2.181-1.343 3.705-3.268 3.705-1.902 0-3.337-1.593-3.337-3.705s1.435-3.704 3.337-3.704c1.893 0 3.268 1.557 3.268 3.704zm10.79-6.527c-3.75 0-6.687 2.887-6.687 6.574 0 3.647 2.918 6.503 6.642 6.503 3.763 0 6.709-2.878 6.709-6.55 0-3.66-2.927-6.527-6.664-6.527zm0 10.253c-1.994 0-3.498-1.603-3.498-3.727 0-2.134 1.452-3.682 3.453-3.682 2.007 0 3.52 1.603 3.52 3.729 0 2.133-1.461 3.68-3.475 3.68zm14.671-9.999h-3.063v-3.13a.203.203 0 00-.202-.204h-2.782a.205.205 0 00-.205.204v3.13h-1.336a.203.203 0 00-.202.204v2.391c0 .113.09.204.202.204h1.336v6.188c0 2.5 1.245 3.767 3.701 3.767.997 0 1.824-.206 2.604-.649a.198.198 0 00.103-.176v-2.278a.203.203 0 00-.294-.18 3.512 3.512 0 01-1.633.393c-.892 0-1.292-.406-1.292-1.313v-5.75h3.063a.204.204 0 00.202-.205v-2.39a.198.198 0 00-.2-.204l-.002-.002zm10.667.013v-.385c0-1.13.434-1.635 1.405-1.635.58 0 1.047.115 1.569.29a.2.2 0 00.182-.03.201.201 0 00.084-.165v-2.344a.201.201 0 00-.144-.195 7.62 7.62 0 00-2.312-.333c-2.568 0-3.928 1.447-3.928 4.183v.59h-1.337a.205.205 0 00-.204.203v2.403c0 .113.092.204.204.204h1.337v9.542c0 .114.092.205.204.205h2.781c.114 0 .204-.09.204-.205v-9.541h2.598l3.98 9.541c-.452 1.002-.897 1.202-1.503 1.202-.489 0-1.007-.146-1.534-.437a.221.221 0 00-.161-.015.2.2 0 00-.12.11l-.944 2.07a.204.204 0 00.088.264c.985.533 1.872.76 2.97.76 2.055 0 3.191-.958 4.191-3.532l4.826-12.472a.197.197 0 00-.022-.19.196.196 0 00-.165-.088h-2.897a.203.203 0 00-.193.137l-2.968 8.474-3.249-8.48a.203.203 0 00-.189-.13l-4.753-.001zm-6.185-.013h-2.783a.205.205 0 00-.204.204v12.137c0 .114.093.205.204.205h2.783c.112 0 .204-.09.204-.205V16.007a.204.204 0 00-.204-.205zm-1.375-5.526a1.994 1.994 0 100 3.99 1.994 1.994 0 000-3.99zm24.373 9.429a1.95 1.95 0 01-1.958-1.958c0-1.074.868-1.968 1.968-1.968A1.95 1.95 0 01160 17.736a1.97 1.97 0 01-1.968 1.969zm.01-3.732a1.75 1.75 0 00-1.762 1.774c0 .976.755 1.762 1.752 1.762a1.75 1.75 0 001.762-1.773c0-.976-.755-1.763-1.752-1.763zm.434 1.964l.555.775h-.469l-.498-.71h-.428v.71h-.391v-2.055h.916c.479 0 .792.244.792.656.003.337-.193.543-.474.624h-.003zm-.33-.927h-.51v.65h.51c.253 0 .406-.125.406-.326 0-.21-.153-.324-.406-.324z"></path><title>Spotify logo</title></svg>